<svg width="16" height="16" viewBox="0 0 16 16" fill="none" xmlns="http://www.w3.org/2000/svg">
<path d="M9.15337 14C9.03617 14.202 8.86794 14.3697 8.66553 14.4863C8.46311 14.6029 8.23363 14.6643 8.00004 14.6643C7.76645 14.6643 7.53697 14.6029 7.33456 14.4863C7.13215 14.3697 6.96391 14.202 6.84671 14M14.6667 11.3333H1.33337C1.86381 11.3333 2.37251 11.1226 2.74759 10.7475C3.12266 10.3725 3.33337 9.86375 3.33337 9.33331V5.99998C3.33337 4.7623 3.82504 3.57532 4.70021 2.70015C5.57538 1.82498 6.76236 1.33331 8.00004 1.33331C9.23772 1.33331 10.4247 1.82498 11.2999 2.70015C12.175 3.57532 12.6667 4.7623 12.6667 5.99998V9.33331C12.6667 9.86375 12.8774 10.3725 13.2525 10.7475C13.6276 11.1226 14.1363 11.3333 14.6667 11.3333Z" stroke="#ADB5BD" stroke-width="2" stroke-linecap="round" stroke-linejoin="round"/>
</svg>
