<svg width="57" height="76" viewBox="0 0 57 76" fill="none" xmlns="http://www.w3.org/2000/svg">
<g clip-path="url(#clip0)">
<path d="M41.7145 38.0002C46.1182 35.0827 49.0212 30.0941 49.0212 24.4288C49.0212 15.4342 41.705 8.14307 32.6808 8.14307H8.17017V19.0002H13.617V13.5716H32.6808C38.6974 13.5716 43.5744 18.4324 43.5744 24.4288C43.5744 30.4252 38.6974 35.2859 32.6808 35.2859H13.617V27.1431H29.9574C31.4615 27.1431 32.6808 25.9279 32.6808 24.4288C32.6808 22.9297 31.4615 21.7145 29.9574 21.7145H8.17017V51.5716C8.17017 53.0707 9.38943 54.2859 10.8936 54.2859H32.6808V48.8574H13.617V40.7145H32.6808C38.6974 40.7145 43.5744 45.5752 43.5744 51.5716C43.5744 57.568 38.6974 62.4288 32.6808 62.4288H13.617V57.0002H8.17017V67.8574H32.6808C41.705 67.8574 49.0212 60.5657 49.0212 51.5716C49.0212 45.9069 46.1182 40.9177 41.7145 38.0002Z" fill="var(--text-light)"/>
<path d="M54.4681 73.2857H2.7234V2.71429H54.4681V73.2857ZM0 76H57.1915V0H0" fill="var(--text-light)"/>
</g>
<defs>
<clipPath id="clip0">
<rect width="57" height="76" fill="white"/>
</clipPath>
</defs>
</svg>
