<svg width="98" height="40" viewBox="0 0 98 40" fill="none" xmlns="http://www.w3.org/2000/svg">
<path d="M0 4C0 1.79086 1.79086 0 4 0H94C96.2091 0 98 1.79086 98 4V36C98 38.2091 96.2091 40 94 40H4C1.79086 40 0 38.2091 0 36V4Z" fill="white"/>
<path d="M29 23V27C29 27.5304 28.7893 28.0391 28.4142 28.4142C28.0391 28.7893 27.5304 29 27 29H13C12.4696 29 11.9609 28.7893 11.5858 28.4142C11.2107 28.0391 11 27.5304 11 27V23" stroke="#495057" stroke-width="2" stroke-linecap="round" stroke-linejoin="round"/>
<path d="M25 16L20 11L15 16" stroke="#111111" stroke-width="2" stroke-linecap="round" stroke-linejoin="round"/>
<path d="M20 11V23" stroke="#111111" stroke-width="2" stroke-linecap="round" stroke-linejoin="round"/>
<path d="M43.4891 25H41.5203V13.625H43.4891V25ZM47.8403 16.5469L47.895 17.4297C48.4888 16.737 49.3013 16.3906 50.3325 16.3906C51.4627 16.3906 52.2361 16.8229 52.6528 17.6875C53.2674 16.8229 54.132 16.3906 55.2466 16.3906C56.1789 16.3906 56.8716 16.6484 57.3247 17.1641C57.783 17.6797 58.0174 18.4401 58.0278 19.4453V25H56.1294V19.5C56.1294 18.9635 56.0122 18.5703 55.7778 18.3203C55.5434 18.0703 55.1554 17.9453 54.6138 17.9453C54.1815 17.9453 53.8273 18.0625 53.5513 18.2969C53.2804 18.526 53.0903 18.8281 52.9809 19.2031L52.9888 25H51.0903V19.4375C51.0643 18.4427 50.5565 17.9453 49.5669 17.9453C48.8065 17.9453 48.2674 18.2552 47.9497 18.875V25H46.0513V16.5469H47.8403ZM67.6994 20.8594C67.6994 22.1667 67.4025 23.2109 66.8088 23.9922C66.215 24.7682 65.4181 25.1562 64.4181 25.1562C63.491 25.1562 62.7489 24.8516 62.1916 24.2422V28.25H60.2931V16.5469H62.0431L62.1213 17.4062C62.6785 16.7292 63.4364 16.3906 64.3947 16.3906C65.4259 16.3906 66.2332 16.776 66.8166 17.5469C67.4051 18.3125 67.6994 19.3776 67.6994 20.7422V20.8594ZM65.8088 20.6953C65.8088 19.8516 65.6395 19.1823 65.3009 18.6875C64.9676 18.1927 64.4884 17.9453 63.8634 17.9453C63.0874 17.9453 62.5301 18.2656 62.1916 18.9062V22.6562C62.5353 23.3125 63.0978 23.6406 63.8791 23.6406C64.4832 23.6406 64.9546 23.3984 65.2931 22.9141C65.6369 22.4245 65.8088 21.6849 65.8088 20.6953ZM69.2772 20.6953C69.2772 19.8672 69.4412 19.1224 69.7694 18.4609C70.0975 17.7943 70.5584 17.2839 71.1522 16.9297C71.7459 16.5703 72.4282 16.3906 73.1991 16.3906C74.3397 16.3906 75.2642 16.7578 75.9725 17.4922C76.686 18.2266 77.0715 19.2005 77.1287 20.4141L77.1366 20.8594C77.1366 21.6927 76.9751 22.4375 76.6522 23.0938C76.3345 23.75 75.8761 24.2578 75.2772 24.6172C74.6834 24.9766 73.9959 25.1562 73.2147 25.1562C72.022 25.1562 71.0662 24.7604 70.3475 23.9688C69.634 23.1719 69.2772 22.112 69.2772 20.7891V20.6953ZM71.1756 20.8594C71.1756 21.7292 71.3553 22.4115 71.7147 22.9062C72.0741 23.3958 72.5741 23.6406 73.2147 23.6406C73.8553 23.6406 74.3527 23.3906 74.7069 22.8906C75.0662 22.3906 75.2459 21.6589 75.2459 20.6953C75.2459 19.8411 75.061 19.1641 74.6912 18.6641C74.3267 18.1641 73.8293 17.9141 73.1991 17.9141C72.5793 17.9141 72.0871 18.1615 71.7225 18.6562C71.3579 19.1458 71.1756 19.8802 71.1756 20.8594ZM83.4878 18.2812C83.2378 18.2396 82.98 18.2188 82.7144 18.2188C81.8446 18.2188 81.2586 18.5521 80.9566 19.2188V25H79.0581V16.5469H80.8706L80.9175 17.4922C81.3758 16.7578 82.0112 16.3906 82.8237 16.3906C83.0946 16.3906 83.3185 16.4271 83.4956 16.5L83.4878 18.2812ZM87.7766 14.4922V16.5469H89.2687V17.9531H87.7766V22.6719C87.7766 22.9948 87.8391 23.2292 87.9641 23.375C88.0943 23.5156 88.3234 23.5859 88.6516 23.5859C88.8703 23.5859 89.0917 23.5599 89.3156 23.5078V24.9766C88.8833 25.0964 88.4667 25.1562 88.0656 25.1562C86.6073 25.1562 85.8781 24.3516 85.8781 22.7422V17.9531H84.4875V16.5469H85.8781V14.4922H87.7766Z" fill="#495057"/>
<path d="M4 1H94V-1H4V1ZM97 4V36H99V4H97ZM94 39H4V41H94V39ZM1 36V4H-1V36H1ZM4 39C2.34314 39 1 37.6569 1 36H-1C-1 38.7614 1.23857 41 4 41V39ZM97 36C97 37.6569 95.6569 39 94 39V41C96.7614 41 99 38.7614 99 36H97ZM94 1C95.6569 1 97 2.34315 97 4H99C99 1.23858 96.7614 -1 94 -1V1ZM4 -1C1.23858 -1 -1 1.23858 -1 4H1C1 2.34315 2.34315 1 4 1V-1Z" fill="#ADB5BD"/>
</svg>
