<svg width="14" height="18" viewBox="0 0 14 18" fill="none" xmlns="http://www.w3.org/2000/svg">
<path d="M13 7.66669C13 12.3334 7 16.3334 7 16.3334C7 16.3334 1 12.3334 1 7.66669C1 6.07539 1.63214 4.54926 2.75736 3.42405C3.88258 2.29883 5.4087 1.66669 7 1.66669C8.5913 1.66669 10.1174 2.29883 11.2426 3.42405C12.3679 4.54926 13 6.07539 13 7.66669Z" stroke="#ADB5BD" stroke-width="2" stroke-linecap="round" stroke-linejoin="round"/>
<path d="M7 9.66669C8.10457 9.66669 9 8.77126 9 7.66669C9 6.56212 8.10457 5.66669 7 5.66669C5.89543 5.66669 5 6.56212 5 7.66669C5 8.77126 5.89543 9.66669 7 9.66669Z" stroke="#ADB5BD" stroke-width="2" stroke-linecap="round" stroke-linejoin="round"/>
</svg>
