<svg width="18" height="16" viewBox="0 0 18 16" fill="none" xmlns="http://www.w3.org/2000/svg">
<path d="M12.3333 14V12.6667C12.3333 11.9594 12.0523 11.2811 11.5522 10.781C11.0521 10.281 10.3739 10 9.66663 10H4.33329C3.62605 10 2.94777 10.281 2.44767 10.781C1.94758 11.2811 1.66663 11.9594 1.66663 12.6667V14M16.3333 14V12.6667C16.3329 12.0758 16.1362 11.5018 15.7742 11.0349C15.4122 10.5679 14.9054 10.2344 14.3333 10.0867M11.6666 2.08667C12.2402 2.23353 12.7487 2.56713 13.1117 3.03487C13.4748 3.50261 13.6719 4.07789 13.6719 4.67C13.6719 5.26211 13.4748 5.83739 13.1117 6.30513C12.7487 6.77287 12.2402 7.10647 11.6666 7.25333M9.66663 4.66667C9.66663 6.13943 8.47272 7.33333 6.99996 7.33333C5.5272 7.33333 4.33329 6.13943 4.33329 4.66667C4.33329 3.19391 5.5272 2 6.99996 2C8.47272 2 9.66663 3.19391 9.66663 4.66667Z" stroke="#ADB5BD" stroke-width="2" stroke-linecap="round" stroke-linejoin="round"/>
</svg>
